<?xml version="1.0" encoding="utf-8"?>
<!-- Generator: Adobe Illustrator 16.0.0, SVG Export Plug-In . SVG Version: 6.00 Build 0)  -->
<!DOCTYPE svg PUBLIC "-//W3C//DTD SVG 1.1//EN" "http://www.w3.org/Graphics/SVG/1.1/DTD/svg11.dtd">
<svg version="1.1"
	 id="GUIDE" xmlns:sodipodi="http://sodipodi.sourceforge.net/DTD/sodipodi-0.dtd" xmlns:inkscape="http://www.inkscape.org/namespaces/inkscape" xmlns:dc="http://purl.org/dc/elements/1.1/" xmlns:svg="http://www.w3.org/2000/svg" xmlns:cc="http://creativecommons.org/ns#" xmlns:rdf="http://www.w3.org/1999/02/22-rdf-syntax-ns#"
	 xmlns="http://www.w3.org/2000/svg" xmlns:xlink="http://www.w3.org/1999/xlink" x="0px" y="0px" width="539.5px" height="539.5px"
	 viewBox="0 0 539.5 539.5" enable-background="new 0 0 539.5 539.5" xml:space="preserve">
<g>
	<path d="M515.478,297.053l-26.932,11.656c-20.54,8.891-54.817,15.828-102.522,20.791v-33.988h-26v-24h-40v-24.333h-51v-20h29.417
		v-15h-29.417v-18h29.417v-15h-47.75v-46h-15v46h-47.75v15h29.417v18H187.94v15h29.417v20h-51v24.333H145.19v-25.857h-15v25.857
		H90.357v67.049c-8.6-0.07-16.676-0.146-24.116-0.219c-13.979-0.133-42.219-0.25-42.219-0.25v91.086h416.854l1.044-6.266
		c3.008-18.045,11.442-36.754,21.994-54.629c0.101-0.023,0.204-0.049,0.305-0.072l-0.076-0.313
		c10.143-17.121,22.207-33.463,33.297-47.697L515.478,297.053z M320.023,286.512h25v9h-25V286.512z M320.023,310.512h51v20.445
		c-15.703,1.42-32.705,2.648-51,3.684V310.512z M232.357,194.178h21.666v53h-21.666V194.178z M181.357,262.178h123.666v73.255
		c-36.482,1.791-77.725,2.873-123.666,3.236V262.178z M105.357,286.512h61v52.252c-6.87,0.029-13.828,0.047-20.899,0.047
		c-14.145,0-27.573-0.057-40.101-0.139V286.512z M454.362,355.109c-62.364,13.951-172.159,20.379-335.145,19.645l-0.068,15
		c8.346,0.037,16.526,0.057,24.598,0.057c140.108,0,239.009-5.703,300.683-17.352c-7.175,13.664-12.94,27.736-16.077,41.719H39.022
		v-25.059c5.301,0.027,11.569,0.08,19.168,0.152l0.139-15c-7.651-0.072-13.964-0.125-19.307-0.152v-21.004
		c7.585,0.039,16.814,0.127,27.075,0.227c21.81,0.209,48.954,0.469,79.36,0.469c160.781,0,267.865-7.646,325.46-23.316
		C465.244,338.352,459.619,346.602,454.362,355.109z"/>
	<path d="M76.665,389.447c6.641,0.061,13.705,0.123,21.135,0.178l0.111-15c-7.42-0.055-14.475-0.117-21.107-0.178L76.665,389.447z"
		/>
	<rect x="198.858" y="281.178" width="13.659" height="15"/>
	<rect x="223.859" y="281.178" width="13.66" height="15"/>
	<rect x="248.861" y="281.178" width="13.659" height="15"/>
	<rect x="273.862" y="281.178" width="13.66" height="15"/>
	<rect x="119.19" y="305.066" width="37" height="15"/>
	<rect x="130.19" y="224.989" width="15" height="12"/>
	<rect x="235.69" y="110.322" width="15" height="13.5"/>
</g>
</svg>
